Coordinates
version=1
nRows=13
nColumns=34
inDegrees=yes

Units are S.I. units (second, meters, Newtons, ...)
If the header above contains a line with 'inDegrees', this indicates whether rotational values are in degrees (yes) or radians (no).

endheader
time	pelvis_tilt	pelvis_list	pelvis_rotation	pelvis_tx	pelvis_ty	pelvis_tz	hip_flexion_r	hip_adduction_r	hip_rotation_r	knee_angle_r	ankle_angle_r	subtalar_angle_r	mtp_angle_r	hip_flexion_l	hip_adduction_l	hip_rotation_l	knee_angle_l	ankle_angle_l	subtalar_angle_l	mtp_angle_l	lumbar_extension	lumbar_bending	lumbar_rotation	arm_flex_r	arm_add_r	arm_rot_r	elbow_flex_r	pro_sup_r	arm_flex_l	arm_add_l	arm_rot_l	elbow_flex_l	pro_sup_l
      1.48333330	      1.10137378	     -1.71886070	      2.81832011	     -0.10609409	      1.24870519	     -0.09521631	     -4.13736197	      0.31072366	     -0.67971794	      0.00000000	      8.48157009	     -4.81370401	      0.00000000	     -2.86669536	     -3.38576591	      0.00710595	      0.00000000	      9.08721687	     -2.10599056	      0.00000000	    -11.37983519	      1.38784779	     -1.95774478	      6.20883319	     -6.92453237	     21.75810901	     24.16647513	     91.60862939	      8.54838690	     -8.47920980	     27.70067910	     25.93354079	     91.17905647
      1.50000000	      1.13222967	     -1.74014908	      2.73319952	     -0.10627082	      1.24703399	     -0.09514741	     -4.22586154	      0.31015941	     -0.63291626	      0.00000000	      8.41905035	     -4.79820471	      0.00000000	     -2.88300200	     -3.38354660	     -0.01218244	      0.00000000	      9.08321062	     -2.14197067	      0.00000000	    -11.48403144	      1.45972869	     -1.98928733	      5.93817795	     -7.23685430	     21.65906751	     24.04838241	     91.59911366	      8.28543329	     -8.68238807	     27.62284043	     25.76394707	     91.17337244
      1.51666670	      1.17898322	     -1.76183588	      2.70653241	     -0.10716367	      1.24835551	     -0.09492026	     -4.26309700	      0.32137783	     -0.56679607	      0.00000000	      8.38036773	     -4.78744019	      0.00000000	     -2.90768023	     -3.38696554	     -0.02101317	      0.00000000	      9.07728666	     -2.17569616	      0.00000000	    -11.57824272	      1.52331167	     -2.00564267	      5.66349133	     -7.56474424	     21.54335946	     23.93402506	     91.58587942	      7.99225230	     -8.91924662	     27.52658504	     25.56723245	     91.16328925
      1.53333330	      1.19402225	     -1.74987929	      2.74563576	     -0.11225585	      1.25300882	     -0.09581025	     -4.23265773	      0.28807553	     -0.52791913	      0.00000000	      8.31767611	     -4.78381834	      0.00000000	     -2.84176100	     -3.34951017	     -0.04192667	      0.00000000	      9.06472184	     -2.21676694	      0.00000000	    -11.70582606	      1.61622727	     -2.00153279	      5.50777166	     -7.87123252	     21.42359533	     23.84626145	     91.57021710	      7.80895995	     -9.17318517	     27.41856432	     25.38346945	     91.14974105
      1.55000000	      1.12116937	     -1.83019310	      2.57663655	     -0.10961440	      1.25378331	     -0.09602813	     -4.08343463	      0.32400334	     -0.04657129	      0.00000000	      7.93500743	     -5.53098053	      0.00000000	     -2.73074069	     -3.39147135	      0.15976190	      0.00000000	      8.64649555	     -2.90626057	      0.00000000	    -11.83159571	      1.81340171	     -1.66698108	      4.24474858	     -7.59429622	     14.06708759	     25.14136082	     91.11982776	      7.28389223	     -8.27687605	     20.93277148	     24.35510232	     90.66562412
      1.56666670	      1.09383091	     -1.81259936	      2.62481341	     -0.10952290	      1.25098067	     -0.09585239	     -4.00649166	      0.29327445	     -0.06617924	      0.00235956	      7.90088705	     -5.53216715	      0.00000000	     -2.58121293	     -3.35387159	      0.16336182	      0.00000000	      8.65351397	     -2.91294517	      0.00000000	    -12.16714847	      1.86161332	     -1.64220770	      3.92976604	     -7.90256302	     14.02609402	     24.99272652	     91.12555059	      6.94765770	     -8.61069442	     20.90084875	     24.18156025	     90.66957620
      1.58333330	      1.09602559	     -1.77444525	      2.60175430	     -0.10926913	      1.25111715	     -0.09530559	     -3.97590519	      0.20871126	     -0.24514560	      0.00000000	      7.81662606	     -5.60668754	      0.00000000	     -2.51734584	     -3.31126660	      0.12542603	      0.00000000	      8.62794249	     -2.95156519	      0.00000000	    -12.30729082	      1.88302369	     -1.60609027	      3.52497416	     -8.41382063	     13.91479092	     24.81788041	     91.13281988	      6.49375624	     -9.09516548	     20.81224288	     23.94867606	     90.67084985
      1.60000000	      1.00565301	     -1.70362942	      2.50850803	     -0.10754161	      1.25014630	     -0.09471092	     -3.85792203	      0.07372708	     -0.43579576	      0.00000000	      7.66778919	     -5.69097073	      0.00000000	     -2.49610677	     -3.19705067	      0.12639477	      0.00000000	      8.53169984	     -3.04002757	      0.00000000	    -12.27970275	      1.84312871	     -1.63530708	      2.79766808	     -8.73947128	     13.66329101	     24.67219450	     91.14513577	      5.80835992	     -9.48317624	     20.58362834	     23.64635742	     90.65620531
      1.61666670	      0.84115690	     -1.70785916	      2.38990816	     -0.10720331	      1.25295222	     -0.09554787	     -3.59464446	      0.04359951	     -0.51026041	      0.00000000	      7.58163179	     -5.70423237	      0.00000000	     -2.31216672	     -3.18466930	      0.05441329	      0.00000000	      8.41344532	     -3.13886744	      0.00000000	    -12.47472560	      1.87376865	     -1.66322191	      2.21598988	     -9.17186124	     13.38906098	     24.51581277	     91.13476678	      5.27033624	     -9.98072927	     20.34133689	     23.33085990	     90.62118373
      1.63333330	      0.74242272	     -1.70808440	      2.31857732	     -0.10925996	      1.25432262	     -0.09519314	     -3.39631032	      0.02401749	     -0.52749043	      0.03654363	      7.55050456	     -5.69939521	      0.00000000	     -2.14796173	     -3.15867456	      0.08440492	      0.00000000	      8.37770139	     -3.12887011	      0.00000000	    -12.95142219	      1.92384962	     -1.65271604	      1.71788203	     -9.45766550	     13.32750708	     24.31582403	     91.12925132	      4.77902034	    -10.32734477	     20.28669368	     23.09423502	     90.61086846
      1.65000000	     -0.29291910	     -1.72124473	      2.27152590	     -0.10952751	      1.24997793	     -0.09434803	     -1.99685437	      0.04000890	     -0.49091392	      0.44740033	      7.56682001	     -5.67853442	      0.00000000	     -1.03109943	     -3.12160434	      0.39336370	      0.00000000	      8.00357968	     -3.64843902	      0.00000000	    -11.77552990	      1.91032168	     -1.73781209	      0.58372596	     -9.61833493	     11.28263389	     24.35123597	     90.87166421	      3.73739523	    -10.58772131	     18.47392990	     22.26569671	     90.10196602
      1.66666670	     -0.39790771	     -1.67470617	      2.31217424	     -0.10911606	      1.25144211	     -0.09539438	     -1.85165865	     -0.00321403	     -0.42312793	      0.45544377	      7.51737244	     -5.61926123	      0.00000000	     -0.91295946	     -3.06972205	      0.40512761	      0.00000000	      7.95303223	     -3.63832819	      0.00000000	    -12.37027661	      1.91546685	     -1.74349768	     -0.07309202	     -9.95477527	     11.22735730	     24.07720098	     90.86577782	      3.15185641	    -10.97799385	     18.42591580	     22.00102668	     90.08859695
      1.68333330	     -0.49086427	     -1.47249367	      2.21995655	     -0.10711125	      1.24757295	     -0.09469836	     -1.75732720	     -0.19854742	     -0.19779746	      0.41810082	      7.58398374	     -5.40280344	      0.00000000	     -0.88968488	     -2.84659527	      0.33490875	      0.00000000	      7.71415465	     -3.81032162	      0.00000000	    -12.31517193	      1.61566583	     -1.68960070	     -1.12674798	    -10.26337574	     10.80918111	     23.78345039	     90.78829192	      2.14091361	    -11.55951158	     18.04336384	     21.57225535	     89.92936336
